<svg xmlns="http://www.w3.org/2000/svg" width="365" height="88" viewBox="0 0 365 88">
  <path fill="#B5342F" fill-rule="evenodd" d="M63.5368787,32.7800926 C63.5368787,41.2338386 60.6427779,48.4866596 54.8544896,54.5387731 C49.0662012,60.5908867 42.0468077,63.6168981 33.7960983,63.6168981 C25.353512,63.6168981 18.1102654,60.7189719 12.0661411,54.9230324 C6.02201681,49.1270929 3,42.0984209 3,33.8368056 C3,25.4471031 5.89410076,18.2102928 11.6823891,12.1261574 C17.4706774,6.04202205 24.52205,3 32.8367183,3 C37.5057244,3 42.254608,4.2488301 47.0835115,6.74652778 C51.912415,9.24422545 55.7019282,12.4783752 58.4521646,16.4490741 L55.8618386,17.9861111 C53.4953561,13.6311511 50.2494862,10.1728523 46.1241315,7.61111111 C41.9987768,5.04936991 37.5696834,3.8005398 32.8367183,3.86458333 C25.6733118,3.99267039 19.5813096,6.97064987 14.5605291,12.7986111 C9.53974864,18.6265723 7.02939604,25.6392337 7.02939604,33.8368056 C7.02939604,41.8422468 9.65167518,48.6627805 14.8963121,54.2986111 C20.1409491,59.9344418 26.4088358,62.7523148 33.7001603,62.7523148 C40.9275259,62.7523148 47.0515071,59.8063566 52.0722875,53.9143519 C57.093068,48.0223471 59.6034206,40.9776644 59.6034206,32.7800926 C59.6034206,30.1543079 59.2516515,27.5285625 58.5481026,24.9027778 L32.9326563,24.9027778 L32.9326563,24.0381944 L62.2896847,24.0381944 C63.1211515,27.0482404 63.5368787,29.9621773 63.5368787,32.7800926 Z M83.2041689,54.9710648 C83.2041689,57.2766319 82.388704,59.2619516 80.7577499,60.9270833 C79.1267957,62.5922151 77.1600863,63.4247685 74.8575628,63.4247685 C72.5550393,63.4247685 70.5723404,62.5922151 68.9094067,60.9270833 C67.2464731,59.2619516 66.4150187,57.2766319 66.4150187,54.9710648 L66.4150187,24.0381944 L67.2784607,24.0381944 L67.2784607,54.9710648 C67.2784607,57.0204578 68.013978,58.7976391 69.4850347,60.302662 C70.9560914,61.807685 72.7469162,62.5601852 74.8575628,62.5601852 C75.9448656,62.5601852 76.904236,61.807685 77.7357028,60.302662 C78.5671697,58.7976391 78.9828968,57.0204578 78.9828968,54.9710648 L78.9828968,24.0381944 L83.2041689,24.0381944 L83.2041689,54.9710648 Z M92.318279,19.0428241 C92.318279,20.4517817 91.5507827,21.15625 90.015767,21.15625 C88.6726282,21.15625 88.0010689,20.4517817 88.0010689,19.0428241 C88.0010689,17.6338664 88.6726282,16.9293981 90.015767,16.9293981 C91.5507827,16.9293981 92.318279,17.6338664 92.318279,19.0428241 Z M92.222341,62.4641204 L88.0010689,62.4641204 L88.0010689,24.0381944 L92.222341,24.0381944 L92.222341,62.4641204 Z M167.478339,60.7335923 C167.515227,61.3026107 167.533672,61.8794534 167.533672,62.4641204 C167.533672,68.9965604 165.231183,74.5522533 160.626136,79.1313657 C156.021089,83.7104781 150.45674,86 143.932924,86 C137.473066,86 131.940696,83.7104781 127.335649,79.1313657 C122.730602,74.5522533 120.428113,68.9965604 120.428113,62.4641204 C120.428113,59.1338568 121.067694,56.0277922 122.346873,53.1458333 L123.114377,53.4340278 C121.899157,56.3800302 121.291555,59.3900309 121.291555,62.4641204 C121.291555,68.7403863 123.514097,74.1039515 127.959246,78.5549769 C132.404396,83.0060022 137.728902,85.2314815 143.932924,85.2314815 C149.305478,85.2314815 153.878477,83.0060022 157.652058,78.5549769 C161.273914,74.2829129 163.157628,69.1702146 163.303249,63.2167394 C162.694682,63.3554257 162.058146,63.4247685 161.39364,63.4247685 C159.091116,63.4247685 157.108417,62.5922151 155.445484,60.9270833 C153.78255,59.2619516 152.951096,57.2766319 152.951096,54.9710648 L152.951096,42.2300939 C150.248402,40.5411989 147.242355,39.6967593 143.932924,39.6967593 C138.944123,39.6967593 134.243208,41.3618661 129.830037,44.6921296 C127.911268,46.1651308 126.056485,46.8695991 124.265633,46.8055556 C121.579356,46.741512 120.236237,45.5247032 120.236237,43.1550926 C120.236237,41.2978302 121.355503,39.7608086 123.594067,38.5439815 C125.512837,37.4552415 127.495536,36.9108796 129.542223,36.9108796 C130.053895,36.9108796 130.469622,36.9429009 130.789417,37.0069444 C128.870648,35.4058562 127.911277,33.356494 127.911277,30.8587963 C127.911277,28.6813163 128.694763,26.8080711 130.261758,25.2390046 C131.828754,23.6699381 133.731505,22.8854167 135.970069,22.8854167 C139.74365,22.8854167 142.238013,24.6465873 143.453234,28.1689815 C144.540536,28.0408944 145.435949,27.2723836 146.139498,25.8634259 C146.779087,24.6465989 147.03492,23.4618113 146.907002,22.3090278 L150.552646,24.2303241 C150.232851,25.5752382 149.241501,26.7280045 147.578568,27.6886574 C146.235429,28.4571798 144.956268,28.8734565 143.741048,28.9375 C143.868966,29.7060224 143.932924,30.3464481 143.932924,30.8587963 C143.932924,33.1003198 143.149438,35.0055863 141.582443,36.5746528 C140.015447,38.1437193 138.144675,38.9282407 135.970069,38.9282407 C134.562972,38.9282407 133.31579,38.5760066 132.228487,37.8715278 C131.46098,37.7434407 130.757441,37.6793981 130.117851,37.6793981 C128.518877,37.6793981 127.1118,38.0636536 125.896579,38.8321759 C124.681359,39.6006983 124.073757,40.6574007 124.073757,42.0023148 C124.073757,43.9236207 125.033128,44.8842593 126.951897,44.8842593 C127.783364,44.8842593 128.710756,44.5000038 129.734099,43.7314815 C133.955393,40.529305 138.688287,38.9282407 143.932924,38.9282407 C147.176093,38.9282407 150.182144,39.4940638 152.951096,40.6257182 L152.951096,24.0381944 L153.814538,24.0381944 L153.814538,41.0004739 C156.279971,42.1341289 158.550498,43.7329271 160.626136,45.796875 C162.744167,47.9029784 164.375111,50.2156696 165.518974,52.7349649 L165.518974,24.0381944 L169.740246,24.0381944 L169.740246,54.9710648 C169.740246,57.1879838 168.986284,59.1088086 167.478339,60.7335923 Z M153.814538,42.8056986 L153.814538,54.9710648 C153.814538,57.0204578 154.550055,58.7976391 156.021112,60.302662 C157.492168,61.807685 159.282993,62.5601852 161.39364,62.5601852 C162.080827,62.5601852 162.716913,62.2596083 163.301905,61.6584489 C163.146418,55.7276475 161.263152,50.6326328 157.652058,46.3732639 C156.453528,44.9595708 155.174357,43.7703831 153.814538,42.8056986 Z M116.590593,62.4641204 L112.561197,62.4641204 L112.561197,31.6273148 C112.561197,29.5779219 112.129481,27.8007405 111.266034,26.2957176 C110.402588,24.7906946 109.427228,24.0381944 108.339925,24.0381944 C106.421156,24.0381944 104.758247,24.6626095 103.351149,25.9114583 C101.944051,27.1603072 101.080618,28.7453608 100.760823,30.6666667 L100.760823,62.4641204 L96.635489,62.4641204 L96.635489,24.1342593 L100.760823,24.1342593 L100.760823,27.880787 C102.359798,24.7426541 104.88614,23.1736111 108.339925,23.1736111 C110.57849,23.1736111 112.51322,24.0221752 114.144174,25.7193287 C115.775128,27.4164823 116.590593,29.3857913 116.590593,31.6273148 L116.590593,62.4641204 Z M139.80759,30.8587963 C139.80759,28.9374904 139.423841,27.2723836 138.656334,25.8634259 C137.888826,24.4544683 136.993413,23.75 135.970069,23.75 C134.946726,23.75 134.051313,24.4544683 133.283805,25.8634259 C132.516298,27.2723836 132.132549,28.9374904 132.132549,30.8587963 C132.132549,32.7801022 132.516298,34.4612196 133.283805,35.9021991 C134.051313,37.3431785 134.946726,38.0636574 135.970069,38.0636574 C136.993413,38.0636574 137.888826,37.3431785 138.656334,35.9021991 C139.423841,34.4612196 139.80759,32.7801022 139.80759,30.8587963 Z M213.008284,52.4733796 C211.281392,55.8676867 208.787029,58.6055066 205.52512,60.6869213 C202.263212,62.768336 198.649583,63.8090278 194.684126,63.8090278 C189.055735,63.8090278 184.226904,61.7916868 180.197488,57.7569444 C176.168072,53.722202 174.153394,48.8869881 174.153394,43.2511574 C174.153394,37.5512832 176.168072,32.7000586 180.197488,28.697338 C184.226904,24.6946173 189.055735,22.693287 194.684126,22.693287 C198.585624,22.693287 202.151284,23.6859469 205.381213,25.6712963 C208.611142,27.6566457 211.089516,30.3144124 212.816408,33.6446759 L178.758418,47.5740741 C179.589885,51.9930777 181.492636,55.6595148 184.466729,58.5734954 C187.440822,61.487476 190.846587,62.9444444 194.684126,62.9444444 C198.009993,62.9444444 201.000031,61.8717314 203.654329,59.7262731 C206.308627,57.5808149 208.307316,54.7469312 209.650454,51.224537 L213.008284,52.4733796 Z M209.170764,34.0289352 C207.827626,30.8267587 205.860916,28.2810665 203.270577,26.3917824 C200.680238,24.5024983 197.818117,23.5578704 194.684126,23.5578704 C190.206997,23.5578704 186.369515,25.4791475 183.171566,29.3217593 C179.973617,33.1643711 178.374666,37.8074573 178.374666,43.2511574 C178.374666,44.0196798 178.438624,45.172446 178.566542,46.7094907 L209.170764,34.0289352 Z M226.919294,24.9027778 L223.849278,24.9027778 L223.849278,62.4641204 L219.723944,62.4641204 L219.723944,24.9027778 L216.462052,24.9027778 L216.462052,24.0381944 L219.723944,24.0381944 L219.723944,13.8553241 L223.849278,13.8553241 L223.849278,24.0381944 L226.919294,24.0381944 L226.919294,24.9027778 Z M238.911545,24.9027778 L235.841529,24.9027778 L235.841529,62.4641204 L231.716195,62.4641204 L231.716195,24.9027778 L228.454303,24.9027778 L228.454303,24.0381944 L231.716195,24.0381944 L231.716195,13.8553241 L235.841529,13.8553241 L235.841529,24.0381944 L238.911545,24.0381944 L238.911545,24.9027778 Z M280.164885,52.4733796 C278.437992,55.8676867 275.943629,58.6055066 272.681721,60.6869213 C269.419813,62.768336 265.806184,63.8090278 261.840727,63.8090278 C256.212336,63.8090278 251.383505,61.7916868 247.354089,57.7569444 C243.324673,53.722202 241.309995,48.8869881 241.309995,43.2511574 C241.309995,37.5512832 243.324673,32.7000586 247.354089,28.697338 C251.383505,24.6946173 256.212336,22.693287 261.840727,22.693287 C265.742225,22.693287 269.307885,23.6859469 272.537814,25.6712963 C275.767743,27.6566457 278.246116,30.3144124 279.973009,33.6446759 L245.915019,47.5740741 C246.746486,51.9930777 248.649237,55.6595148 251.62333,58.5734954 C254.597423,61.487476 258.003188,62.9444444 261.840727,62.9444444 C265.166594,62.9444444 268.156632,61.8717314 270.81093,59.7262731 C273.465228,57.5808149 275.463916,54.7469312 276.807055,51.224537 L280.164885,52.4733796 Z M276.327365,34.0289352 C274.984226,30.8267587 273.017517,28.2810665 270.427178,26.3917824 C267.836839,24.5024983 264.974717,23.5578704 261.840727,23.5578704 C257.363598,23.5578704 253.526116,25.4791475 250.328167,29.3217593 C247.130217,33.1643711 245.531267,37.8074573 245.531267,43.2511574 C245.531267,44.0196798 245.595225,45.172446 245.723143,46.7094907 L276.327365,34.0289352 Z M291.581507,60.4467593 C291.581507,61.1512381 291.293696,61.7916638 290.718065,62.3680556 C290.142434,62.9444473 289.502854,63.2326389 288.799305,63.2326389 C288.095756,63.2326389 287.472166,62.9444473 286.928514,62.3680556 C286.384863,61.7916638 286.113041,61.1512381 286.113041,60.4467593 C286.113041,58.5894969 287.008454,57.6608796 288.799305,57.6608796 C289.502854,57.6608796 290.142434,57.9330605 290.718065,58.4774306 C291.293696,59.0218006 291.581507,59.6782369 291.581507,60.4467593 Z M316.141635,54.0104167 C316.141635,56.6362014 315.182265,58.9097126 313.263495,60.8310185 C311.344726,62.7523244 309.074216,63.712963 306.451897,63.712963 C303.76562,63.712963 301.47912,62.7523244 299.59233,60.8310185 C297.70554,58.9097126 296.762159,56.6362014 296.762159,54.0104167 C296.762159,51.3846319 297.689551,49.1591526 299.544361,47.333912 C301.399172,45.5086714 303.605724,44.5960648 306.164083,44.5960648 L306.164083,45.4606481 C303.797601,45.4606481 301.766933,46.2932016 300.07202,47.9583333 C298.377107,49.6234651 297.529663,51.6408061 297.529663,54.0104167 C297.529663,56.4440708 298.393097,58.4614117 300.119989,60.0625 C301.846882,61.6635883 303.957497,62.4641204 306.451897,62.4641204 C308.050872,62.4641204 309.378001,61.6635883 310.433324,60.0625 C311.488648,58.4614117 312.016301,56.4440708 312.016301,54.0104167 L312.016301,3.96064815 L316.141635,3.96064815 L316.141635,54.0104167 Z M362,42.6747685 C362,48.3105992 359.921364,53.1618238 355.76403,57.228588 C351.606696,61.2953521 346.61797,63.3287037 340.797702,63.3287037 C334.977434,63.3287037 329.988708,61.3113628 325.831374,57.2766204 C321.674039,53.241878 319.595404,48.3746427 319.595404,42.6747685 C319.595404,38.383852 320.858575,34.4772553 323.384955,30.9548611 C325.911335,27.432467 329.189183,24.9027855 333.2186,23.3657407 L333.602352,24.2303241 C329.700853,25.6392817 326.518942,28.0248674 324.056521,31.3871528 C321.5941,34.7494381 320.362908,38.5119391 320.362908,42.6747685 C320.362908,48.054425 322.425554,52.6975113 326.550909,56.6041667 C330.676263,60.510822 335.425147,62.4641204 340.797702,62.4641204 C345.402749,62.4641204 349.368147,60.5268326 352.694014,56.6521991 C356.019881,52.7775655 357.68279,48.1184686 357.68279,42.6747685 C357.68279,37.3591555 356.195766,32.9562289 353.221673,29.4658565 C350.24758,25.9754841 346.426088,23.9741538 341.757082,23.4618056 C338.495173,23.0775444 335.904873,21.9247781 333.986104,20.0034722 C332.067334,18.0821663 331.171922,15.7125913 331.29984,12.8946759 C331.427758,10.2688912 332.387128,8.02740126 334.17798,6.17013889 C335.968831,4.31287652 338.175383,3.38425926 340.797702,3.38425926 C343.42002,3.38425926 345.658551,4.31287652 347.513362,6.17013889 C349.368172,8.02740126 350.295564,10.2688912 350.295564,12.8946759 C350.295564,14.4317206 349.911816,15.9046997 349.144308,17.3136574 L348.664618,17.1215278 C349.368167,15.8406572 349.719936,14.4637419 349.719936,12.9907407 C349.719936,10.5570866 348.856502,8.45969245 347.12961,6.69849537 C345.402717,4.93729829 343.324081,4.05671296 340.89364,4.05671296 C339.294665,4.05671296 337.935557,4.76118123 336.816275,6.17013889 C335.696992,7.57909655 335.13736,9.50037363 335.13736,11.9340278 C335.13736,16.673249 337.471828,19.2669731 342.140834,19.7152778 C347.833184,20.2916695 352.566078,22.821351 356.339658,27.3043981 C360.113238,31.7874453 362,36.9108508 362,42.6747685 Z"/>
</svg>
